<svg width="83" height="19" viewBox="0 0 83 19" fill="none" xmlns="http://www.w3.org/2000/svg">
<path d="M0.773987 7.71799C0.773987 6.49399 1.04999 5.39601 1.60199 4.42401C2.15399 3.44001 2.90399 2.672 3.85199 2.12C4.81199 1.568 5.87399 1.29199 7.03799 1.29199C8.40599 1.29199 9.59999 1.62201 10.62 2.28201C11.64 2.94201 12.384 3.878 12.852 5.09H10.89C10.542 4.334 10.038 3.75199 9.37799 3.34399C8.72999 2.93599 7.94999 2.73199 7.03799 2.73199C6.16199 2.73199 5.37599 2.93599 4.67999 3.34399C3.98399 3.75199 3.43799 4.334 3.04199 5.09C2.64599 5.834 2.44799 6.70999 2.44799 7.71799C2.44799 8.71399 2.64599 9.59001 3.04199 10.346C3.43799 11.09 3.98399 11.666 4.67999 12.074C5.37599 12.482 6.16199 12.686 7.03799 12.686C7.94999 12.686 8.72999 12.488 9.37799 12.092C10.038 11.684 10.542 11.102 10.89 10.346H12.852C12.384 11.546 11.64 12.476 10.62 13.136C9.59999 13.784 8.40599 14.108 7.03799 14.108C5.87399 14.108 4.81199 13.838 3.85199 13.298C2.90399 12.746 2.15399 11.984 1.60199 11.012C1.04999 10.04 0.773987 8.94199 0.773987 7.71799ZM19.5923 14.162C18.6683 14.162 17.8283 13.952 17.0723 13.532C16.3283 13.112 15.7403 12.518 15.3083 11.75C14.8883 10.97 14.6783 10.07 14.6783 9.04999C14.6783 8.04199 14.8943 7.15399 15.3263 6.38599C15.7703 5.60599 16.3703 5.012 17.1263 4.604C17.8823 4.184 18.7283 3.974 19.6643 3.974C20.6003 3.974 21.4463 4.184 22.2023 4.604C22.9583 5.012 23.5523 5.60001 23.9843 6.36801C24.4283 7.13601 24.6503 8.02999 24.6503 9.04999C24.6503 10.07 24.4223 10.97 23.9663 11.75C23.5223 12.518 22.9163 13.112 22.1483 13.532C21.3803 13.952 20.5283 14.162 19.5923 14.162ZM19.5923 12.722C20.1803 12.722 20.7323 12.584 21.2483 12.308C21.7643 12.032 22.1783 11.618 22.4903 11.066C22.8143 10.514 22.9763 9.84199 22.9763 9.04999C22.9763 8.25799 22.8203 7.586 22.5083 7.034C22.1963 6.482 21.7883 6.074 21.2843 5.81C20.7803 5.534 20.2343 5.396 19.6463 5.396C19.0463 5.396 18.4943 5.534 17.9903 5.81C17.4983 6.074 17.1023 6.482 16.8023 7.034C16.5023 7.586 16.3523 8.25799 16.3523 9.04999C16.3523 9.85399 16.4963 10.532 16.7843 11.084C17.0843 11.636 17.4803 12.05 17.9723 12.326C18.4643 12.59 19.0043 12.722 19.5923 12.722ZM28.442 5.95401C28.766 5.39001 29.246 4.92199 29.882 4.54999C30.53 4.16599 31.28 3.974 32.132 3.974C33.008 3.974 33.8 4.184 34.508 4.604C35.228 5.024 35.792 5.61799 36.2 6.38599C36.608 7.14199 36.812 8.02401 36.812 9.03201C36.812 10.028 36.608 10.916 36.2 11.696C35.792 12.476 35.228 13.082 34.508 13.514C33.8 13.946 33.008 14.162 32.132 14.162C31.292 14.162 30.548 13.976 29.9 13.604C29.264 13.22 28.778 12.746 28.442 12.182V18.68H26.804V4.13599H28.442V5.95401ZM35.138 9.03201C35.138 8.28801 34.988 7.64001 34.688 7.08801C34.388 6.53601 33.98 6.116 33.464 5.828C32.96 5.54 32.402 5.396 31.79 5.396C31.19 5.396 30.632 5.54601 30.116 5.84601C29.612 6.13401 29.204 6.55999 28.892 7.12399C28.592 7.67599 28.442 8.31799 28.442 9.04999C28.442 9.79399 28.592 10.448 28.892 11.012C29.204 11.564 29.612 11.99 30.116 12.29C30.632 12.578 31.19 12.722 31.79 12.722C32.402 12.722 32.96 12.578 33.464 12.29C33.98 11.99 34.388 11.564 34.688 11.012C34.988 10.448 35.138 9.78801 35.138 9.03201ZM47.464 4.13599L41.524 18.644H39.832L41.776 13.892L37.798 4.13599H39.616L42.712 12.128L45.772 4.13599H47.464ZM55.547 0.679993V14H53.909V0.679993H55.547ZM59.185 2.534C58.873 2.534 58.609 2.42599 58.393 2.20999C58.177 1.99399 58.069 1.73 58.069 1.418C58.069 1.106 58.177 0.842007 58.393 0.626007C58.609 0.410007 58.873 0.302002 59.185 0.302002C59.485 0.302002 59.737 0.410007 59.941 0.626007C60.157 0.842007 60.265 1.106 60.265 1.418C60.265 1.73 60.157 1.99399 59.941 2.20999C59.737 2.42599 59.485 2.534 59.185 2.534ZM59.977 4.13599V14H58.339V4.13599H59.977ZM67.575 3.95599C68.775 3.95599 69.747 4.32199 70.491 5.05399C71.235 5.77399 71.607 6.818 71.607 8.186V14H69.987V8.42001C69.987 7.43601 69.741 6.68601 69.249 6.17001C68.757 5.64201 68.085 5.37799 67.233 5.37799C66.369 5.37799 65.679 5.64799 65.163 6.18799C64.659 6.72799 64.407 7.51399 64.407 8.54599V14H62.769V4.13599H64.407V5.54001C64.731 5.03601 65.169 4.646 65.721 4.37C66.285 4.094 66.903 3.95599 67.575 3.95599ZM79.79 14L75.92 9.64401V14H74.282V0.679993H75.92V8.51001L79.718 4.13599H82.004L77.36 9.04999L82.022 14H79.79Z" fill="black"/>
</svg>
