<svg width="24" height="24" viewBox="0 0 24 24" fill="none" xmlns="http://www.w3.org/2000/svg">
<path d="M11.5044 0C8.3148 0 5.6124 1.114 3.402 3.341C1.134 5.645 0 8.371 0 11.52C0 14.669 1.134 17.376 3.402 19.642C5.67 21.907 8.3724 23.04 11.5044 23.04C14.6772 23.04 17.4264 21.898 19.7532 19.613C21.9444 17.443 23.04 14.746 23.04 11.52C23.04 8.294 21.924 5.568 19.6956 3.341C17.4648 1.114 14.7348 0 11.5044 0ZM11.5332 2.07201C14.1492 2.07201 16.3692 2.995 18.1956 4.838C20.0412 6.662 20.964 8.888 20.964 11.52C20.964 14.17 20.0604 16.368 18.2532 18.115C16.35 19.997 14.1108 20.938 11.5332 20.938C8.958 20.938 6.738 20.006 4.8732 18.144C3.0084 16.282 2.0772 14.074 2.0772 11.52C2.0772 8.966 3.018 6.739 4.902 4.838C6.7092 2.995 8.9196 2.07201 11.5332 2.07201Z" fill="black"/>
<path d="M16.207 16.77H8.70703C8.55783 16.77 8.41473 16.711 8.30933 16.605C8.20383 16.5 8.14453 16.357 8.14453 16.208V8.52002C8.14453 8.42102 8.18403 8.325 8.25433 8.255C8.32473 8.185 8.42003 8.14502 8.51953 8.14502H16.207C16.3562 8.14502 16.4993 8.20403 16.6047 8.31003C16.7102 8.41503 16.7695 8.55801 16.7695 8.70801V16.208C16.7695 16.357 16.7102 16.5 16.6047 16.605C16.4993 16.711 16.3562 16.77 16.207 16.77Z" fill="black"/>
<path d="M8.14453 7.39502H14.8945V6.83203C14.8945 6.68303 14.8352 6.54003 14.7297 6.43503C14.6243 6.32903 14.4812 6.27002 14.332 6.27002H6.92573C6.75173 6.27002 6.58483 6.33901 6.46173 6.46201C6.33863 6.58501 6.26953 6.75203 6.26953 6.92603V14.332C6.26953 14.482 6.32883 14.625 6.43433 14.73C6.53973 14.836 6.68283 14.895 6.83203 14.895H7.39453V8.14502C7.39453 7.94602 7.47353 7.75502 7.61423 7.61502C7.75483 7.47402 7.94563 7.39502 8.14453 7.39502Z" fill="black"/>
</svg>
