<svg width="18" height="18" viewBox="0 0 18 18" fill="none" xmlns="http://www.w3.org/2000/svg">
<path d="M11.016 8.99991L17.159 2.87131C17.428 2.60231 17.579 2.23751 17.579 1.85701C17.579 1.47661 17.428 1.11171 17.159 0.842707C16.89 0.573707 16.525 0.422607 16.144 0.422607C15.764 0.422607 15.399 0.573707 15.13 0.842707L9.00201 6.98561L2.87299 0.842707C2.60399 0.573707 2.23901 0.422607 1.85901 0.422607C1.47801 0.422607 1.11299 0.573707 0.843994 0.842707C0.574994 1.11171 0.424011 1.47661 0.424011 1.85701C0.424011 2.23751 0.574994 2.60231 0.843994 2.87131L6.987 8.99991L0.843994 15.1285C0.710994 15.2613 0.604013 15.4193 0.532013 15.5933C0.459013 15.7674 0.421997 15.9541 0.421997 16.1427C0.421997 16.3313 0.459013 16.518 0.532013 16.6921C0.604013 16.8662 0.710994 17.0242 0.843994 17.157C0.976994 17.2909 1.13499 17.3972 1.30899 17.4697C1.48299 17.5423 1.67001 17.5796 1.85901 17.5796C2.04701 17.5796 2.23399 17.5423 2.40799 17.4697C2.58199 17.3972 2.73999 17.2909 2.87299 17.157L9.00201 11.0142L15.13 17.157C15.263 17.2909 15.421 17.3972 15.595 17.4697C15.769 17.5423 15.956 17.5796 16.144 17.5796C16.333 17.5796 16.52 17.5423 16.694 17.4697C16.868 17.3972 17.026 17.2909 17.159 17.157C17.293 17.0242 17.399 16.8662 17.471 16.6921C17.544 16.518 17.581 16.3313 17.581 16.1427C17.581 15.9541 17.544 15.7674 17.471 15.5933C17.399 15.4193 17.293 15.2613 17.159 15.1285L11.016 8.99991Z" fill="black"/>
</svg>
