<svg width="24" height="24" viewBox="0 0 24 24" fill="none" xmlns="http://www.w3.org/2000/svg">
<path d="M13.2 21.526C15.6207 21.218 17.8334 19.999 19.3882 18.119C20.943 16.238 21.7233 13.835 21.5705 11.4C21.4176 8.96399 20.3432 6.679 18.5655 5.007C16.7878 3.335 14.4403 2.40299 12 2.39999C9.5568 2.39799 7.2047 3.328 5.4232 5C3.6417 6.672 2.5647 8.96 2.4117 11.399C2.2587 13.837 3.0412 16.242 4.5998 18.124C6.1583 20.005 8.3757 21.222 10.8 21.526V14.4H8.4V12H10.8V10.015C10.8 8.411 10.968 7.829 11.28 7.242C11.5873 6.661 12.0624 6.18701 12.6432 5.88C13.1016 5.63401 13.6716 5.486 14.6676 5.423C15.0624 5.398 15.5736 5.429 16.2012 5.519V7.799H15.6C14.4996 7.799 14.0448 7.85 13.7736 7.996C13.6118 8.079 13.48 8.21099 13.3968 8.37199C13.2528 8.64399 13.2 8.91201 13.2 10.014V12H16.2L15.6 14.4H13.2V21.526ZM12 24C5.3724 24 0 18.628 0 12C0 5.372 5.3724 0 12 0C18.6276 0 24 5.372 24 12C24 18.628 18.6276 24 12 24Z" fill="black"/>
</svg>
