<svg width="87" height="15" viewBox="0 0 87 15" fill="none" xmlns="http://www.w3.org/2000/svg">
<path d="M7.47798 1.45399V2.786H2.02398V7.01601H6.45199V8.34801H2.02398V14H0.385986V1.45399H7.47798ZM8.84428 9.032C8.84428 8.024 9.04828 7.142 9.45628 6.386C9.86428 5.618 10.4223 5.024 11.1303 4.604C11.8503 4.184 12.6483 3.974 13.5243 3.974C14.3883 3.974 15.1383 4.16 15.7743 4.532C16.4103 4.904 16.8843 5.372 17.1963 5.936V4.136H18.8523V14H17.1963V12.164C16.8723 12.74 16.3863 13.22 15.7383 13.604C15.1023 13.976 14.3583 14.162 13.5063 14.162C12.6303 14.162 11.8383 13.946 11.1303 13.514C10.4223 13.082 9.86428 12.476 9.45628 11.696C9.04828 10.916 8.84428 10.028 8.84428 9.032ZM17.1963 9.05C17.1963 8.306 17.0463 7.658 16.7463 7.106C16.4463 6.554 16.0383 6.13399 15.5223 5.84599C15.0183 5.54599 14.4603 5.396 13.8483 5.396C13.2363 5.396 12.6783 5.54 12.1743 5.828C11.6703 6.116 11.2683 6.536 10.9683 7.088C10.6683 7.64 10.5183 8.288 10.5183 9.032C10.5183 9.788 10.6683 10.448 10.9683 11.012C11.2683 11.564 11.6703 11.99 12.1743 12.29C12.6783 12.578 13.2363 12.722 13.8483 12.722C14.4603 12.722 15.0183 12.578 15.5223 12.29C16.0383 11.99 16.4463 11.564 16.7463 11.012C17.0463 10.448 17.1963 9.794 17.1963 9.05ZM21.0084 9.05C21.0084 8.03 21.2124 7.142 21.6204 6.386C22.0284 5.618 22.5924 5.024 23.3124 4.604C24.0444 4.184 24.8784 3.974 25.8144 3.974C27.0264 3.974 28.0224 4.268 28.8024 4.856C29.5944 5.444 30.1164 6.26 30.3684 7.304H28.6044C28.4364 6.704 28.1064 6.23 27.6144 5.882C27.1344 5.534 26.5344 5.36 25.8144 5.36C24.8784 5.36 24.1224 5.684 23.5464 6.332C22.9704 6.968 22.6824 7.874 22.6824 9.05C22.6824 10.238 22.9704 11.156 23.5464 11.804C24.1224 12.452 24.8784 12.776 25.8144 12.776C26.5344 12.776 27.1344 12.608 27.6144 12.272C28.0944 11.936 28.4244 11.456 28.6044 10.832H30.3684C30.1044 11.84 29.5764 12.65 28.7844 13.262C27.9924 13.862 27.0024 14.162 25.8144 14.162C24.8784 14.162 24.0444 13.952 23.3124 13.532C22.5924 13.112 22.0284 12.518 21.6204 11.75C21.2124 10.982 21.0084 10.082 21.0084 9.05ZM41.554 8.69C41.554 9.002 41.536 9.33199 41.5 9.67999H33.616C33.676 10.652 34.006 11.414 34.606 11.966C35.218 12.506 35.956 12.776 36.82 12.776C37.528 12.776 38.116 12.614 38.584 12.29C39.064 11.954 39.4 11.51 39.592 10.958H41.356C41.092 11.906 40.564 12.68 39.772 13.28C38.98 13.868 37.996 14.162 36.82 14.162C35.884 14.162 35.044 13.952 34.3 13.532C33.568 13.112 32.992 12.518 32.572 11.75C32.152 10.97 31.942 10.07 31.942 9.05C31.942 8.03 32.146 7.136 32.554 6.368C32.962 5.6 33.532 5.012 34.264 4.604C35.008 4.184 35.86 3.974 36.82 3.974C37.756 3.974 38.584 4.178 39.304 4.586C40.024 4.994 40.576 5.558 40.96 6.278C41.356 6.986 41.554 7.79 41.554 8.69ZM39.862 8.34801C39.862 7.72401 39.724 7.19 39.448 6.746C39.172 6.29 38.794 5.948 38.314 5.72C37.846 5.48 37.324 5.36 36.748 5.36C35.92 5.36 35.212 5.62399 34.624 6.15199C34.048 6.67999 33.718 7.41201 33.634 8.34801H39.862ZM45.354 5.972C45.69 5.384 46.182 4.904 46.83 4.532C47.478 4.16 48.216 3.974 49.044 3.974C49.932 3.974 50.73 4.184 51.438 4.604C52.146 5.024 52.704 5.618 53.112 6.386C53.52 7.142 53.724 8.024 53.724 9.032C53.724 10.028 53.52 10.916 53.112 11.696C52.704 12.476 52.14 13.082 51.42 13.514C50.712 13.946 49.92 14.162 49.044 14.162C48.192 14.162 47.442 13.976 46.794 13.604C46.158 13.232 45.678 12.758 45.354 12.182V14H43.716V0.679993H45.354V5.972ZM52.05 9.032C52.05 8.288 51.9 7.64 51.6 7.088C51.3 6.536 50.892 6.116 50.376 5.828C49.872 5.54 49.314 5.396 48.702 5.396C48.102 5.396 47.544 5.54599 47.028 5.84599C46.524 6.13399 46.116 6.55999 45.804 7.12399C45.504 7.67599 45.354 8.318 45.354 9.05C45.354 9.794 45.504 10.448 45.804 11.012C46.116 11.564 46.524 11.99 47.028 12.29C47.544 12.578 48.102 12.722 48.702 12.722C49.314 12.722 49.872 12.578 50.376 12.29C50.892 11.99 51.3 11.564 51.6 11.012C51.9 10.448 52.05 9.788 52.05 9.032ZM60.182 14.162C59.258 14.162 58.418 13.952 57.662 13.532C56.918 13.112 56.33 12.518 55.898 11.75C55.478 10.97 55.268 10.07 55.268 9.05C55.268 8.042 55.484 7.154 55.916 6.386C56.36 5.606 56.96 5.012 57.716 4.604C58.472 4.184 59.318 3.974 60.254 3.974C61.19 3.974 62.036 4.184 62.792 4.604C63.548 5.012 64.142 5.6 64.574 6.368C65.018 7.136 65.24 8.03 65.24 9.05C65.24 10.07 65.012 10.97 64.556 11.75C64.112 12.518 63.506 13.112 62.738 13.532C61.97 13.952 61.118 14.162 60.182 14.162ZM60.182 12.722C60.77 12.722 61.322 12.584 61.838 12.308C62.354 12.032 62.768 11.618 63.08 11.066C63.404 10.514 63.566 9.842 63.566 9.05C63.566 8.258 63.41 7.586 63.098 7.034C62.786 6.482 62.378 6.074 61.874 5.81C61.37 5.534 60.824 5.396 60.236 5.396C59.636 5.396 59.084 5.534 58.58 5.81C58.088 6.074 57.692 6.482 57.392 7.034C57.092 7.586 56.942 8.258 56.942 9.05C56.942 9.854 57.086 10.532 57.374 11.084C57.674 11.636 58.07 12.05 58.562 12.326C59.054 12.59 59.594 12.722 60.182 12.722ZM71.696 14.162C70.772 14.162 69.932 13.952 69.176 13.532C68.432 13.112 67.844 12.518 67.412 11.75C66.992 10.97 66.782 10.07 66.782 9.05C66.782 8.042 66.998 7.154 67.43 6.386C67.874 5.606 68.474 5.012 69.23 4.604C69.986 4.184 70.832 3.974 71.768 3.974C72.704 3.974 73.55 4.184 74.306 4.604C75.062 5.012 75.656 5.6 76.088 6.368C76.532 7.136 76.754 8.03 76.754 9.05C76.754 10.07 76.526 10.97 76.07 11.75C75.626 12.518 75.02 13.112 74.252 13.532C73.484 13.952 72.632 14.162 71.696 14.162ZM71.696 12.722C72.284 12.722 72.836 12.584 73.352 12.308C73.868 12.032 74.282 11.618 74.594 11.066C74.918 10.514 75.08 9.842 75.08 9.05C75.08 8.258 74.924 7.586 74.612 7.034C74.3 6.482 73.892 6.074 73.388 5.81C72.884 5.534 72.338 5.396 71.75 5.396C71.15 5.396 70.598 5.534 70.094 5.81C69.602 6.074 69.206 6.482 68.906 7.034C68.606 7.586 68.456 8.258 68.456 9.05C68.456 9.854 68.6 10.532 68.888 11.084C69.188 11.636 69.584 12.05 70.076 12.326C70.568 12.59 71.108 12.722 71.696 12.722ZM84.415 14L80.545 9.644V14H78.907V0.679993H80.545V8.50999L84.343 4.136H86.629L81.985 9.05L86.647 14H84.415Z" fill="black"/>
</svg>
