<svg width="92" height="16" viewBox="0 0 92 16" fill="none" xmlns="http://www.w3.org/2000/svg">
<mask id="path-1-inside-1_203_28" fill="white">
<path d="M4.92 15.54C3.9867 15.54 3.1467 15.38 2.4 15.06C1.6533 14.7267 1.0667 14.26 0.639999 13.66C0.213299 13.06 0 12.36 0 11.56H2.44C2.4933 12.16 2.7267 12.6533 3.14 13.04C3.5667 13.4267 4.16 13.62 4.92 13.62C5.7067 13.62 6.32 13.4333 6.76 13.06C7.2 12.6733 7.42 12.18 7.42 11.58C7.42 11.1133 7.28 10.7333 7 10.44C6.7333 10.1467 6.3933 9.92 5.98 9.76C5.58 9.6 5.02 9.4267 4.3 9.24C3.3933 9 2.6533 8.76 2.08 8.52C1.52 8.2667 1.04 7.88 0.639999 7.36C0.239999 6.84 0.0400009 6.1467 0.0400009 5.28C0.0400009 4.48 0.239999 3.78 0.639999 3.18C1.04 2.58 1.6 2.12 2.32 1.8C3.04 1.48 3.8733 1.32 4.82 1.32C6.1667 1.32 7.2667 1.66 8.12 2.34C8.9867 3.0067 9.4667 3.9267 9.56 5.1H7.04C7 4.5933 6.76 4.16 6.32 3.8C5.88 3.44 5.3 3.26 4.58 3.26C3.9267 3.26 3.3933 3.4267 2.98 3.76C2.5667 4.0933 2.36 4.5733 2.36 5.2C2.36 5.6267 2.4867 5.98 2.74 6.26C3.0067 6.5267 3.34 6.74 3.74 6.9C4.14 7.06 4.6867 7.2333 5.38 7.42C6.3 7.6733 7.0467 7.9267 7.62 8.18C8.2067 8.4333 8.7 8.8267 9.1 9.36C9.5133 9.88 9.72 10.58 9.72 11.46C9.72 12.1667 9.5267 12.8333 9.14 13.46C8.7667 14.0867 8.2133 14.5933 7.48 14.98C6.76 15.3533 5.9067 15.54 4.92 15.54ZM18.1103 4.2C18.9503 4.2 19.697 4.38 20.3503 4.74C21.017 5.1 21.537 5.6333 21.9103 6.34C22.297 7.0467 22.4903 7.9 22.4903 8.9V15.4H20.2303V9.24C20.2303 8.2533 19.9836 7.5 19.4903 6.98C18.997 6.4467 18.3236 6.18 17.4703 6.18C16.617 6.18 15.937 6.4467 15.4303 6.98C14.937 7.5 14.6903 8.2533 14.6903 9.24V15.4H12.4103V0.6H14.6903V5.66C15.077 5.1933 15.5636 4.8333 16.1503 4.58C16.7503 4.3267 17.4036 4.2 18.1103 4.2ZM24.6386 9.84C24.6386 8.7333 24.8653 7.7533 25.3186 6.9C25.7853 6.0467 26.4119 5.3867 27.1986 4.92C27.9986 4.44 28.8786 4.2 29.8386 4.2C30.7053 4.2 31.4586 4.3733 32.0986 4.72C32.7519 5.0533 33.2719 5.4733 33.6586 5.98V4.38H35.9586V15.4H33.6586V13.76C33.2719 14.28 32.7453 14.7133 32.0786 15.06C31.4119 15.4067 30.6519 15.58 29.7986 15.58C28.8519 15.58 27.9853 15.34 27.1986 14.86C26.4119 14.3667 25.7853 13.6867 25.3186 12.82C24.8653 11.94 24.6386 10.9467 24.6386 9.84ZM33.6586 9.88C33.6586 9.12 33.4986 8.46 33.1786 7.9C32.8719 7.34 32.4653 6.9133 31.9586 6.62C31.4519 6.3267 30.9053 6.18 30.3186 6.18C29.7319 6.18 29.1853 6.3267 28.6786 6.62C28.1719 6.9 27.7586 7.32 27.4386 7.88C27.1319 8.4267 26.9786 9.08 26.9786 9.84C26.9786 10.6 27.1319 11.2667 27.4386 11.84C27.7586 12.4133 28.1719 12.8533 28.6786 13.16C29.1986 13.4533 29.7453 13.6 30.3186 13.6C30.9053 13.6 31.4519 13.4533 31.9586 13.16C32.4653 12.8667 32.8719 12.44 33.1786 11.88C33.4986 11.3067 33.6586 10.64 33.6586 9.88ZM41.2333 5.98C41.5666 5.42 42.0066 4.9867 42.5533 4.68C43.1133 4.36 43.7733 4.2 44.5333 4.2V6.56H43.9533C43.0599 6.56 42.3799 6.7867 41.9133 7.24C41.4599 7.6933 41.2333 8.48 41.2333 9.6V15.4H38.9533V4.38H41.2333V5.98ZM56.7291 9.62C56.7291 10.0333 56.7024 10.4067 56.6491 10.74H48.2291C48.2957 11.62 48.6224 12.3267 49.2091 12.86C49.7957 13.3933 50.5157 13.66 51.3691 13.66C52.5957 13.66 53.4624 13.1467 53.9691 12.12H56.4291C56.0957 13.1333 55.4891 13.9667 54.6091 14.62C53.7424 15.26 52.6624 15.58 51.3691 15.58C50.3157 15.58 49.3691 15.3467 48.5291 14.88C47.7024 14.4 47.0491 13.7333 46.5691 12.88C46.1024 12.0133 45.8691 11.0133 45.8691 9.88C45.8691 8.7467 46.0957 7.7533 46.5491 6.9C47.0157 6.0333 47.6624 5.3667 48.4891 4.9C49.3291 4.4333 50.2891 4.2 51.3691 4.2C52.4091 4.2 53.3357 4.4267 54.1491 4.88C54.9624 5.3333 55.5957 5.9733 56.0491 6.8C56.5024 7.6133 56.7291 8.5533 56.7291 9.62ZM54.3491 8.9C54.3357 8.06 54.0357 7.3867 53.4491 6.88C52.8624 6.3733 52.1357 6.12 51.2691 6.12C50.4824 6.12 49.8091 6.3733 49.2491 6.88C48.6891 7.3733 48.3557 8.0467 48.2491 8.9H54.3491ZM68.4281 13.36L71.5481 4.38H73.9681L69.7681 15.4H67.0481L62.8681 4.38H65.3081L68.4281 13.36ZM76.8516 2.92C76.4382 2.92 76.0916 2.78 75.8116 2.5C75.5316 2.22 75.3916 1.8733 75.3916 1.46C75.3916 1.0467 75.5316 0.7 75.8116 0.42C76.0916 0.14 76.4382 0 76.8516 0C77.2516 0 77.5916 0.14 77.8716 0.42C78.1516 0.7 78.2916 1.0467 78.2916 1.46C78.2916 1.8733 78.1516 2.22 77.8716 2.5C77.5916 2.78 77.2516 2.92 76.8516 2.92ZM77.9716 4.38V15.4H75.6916V4.38H77.9716ZM80.205 9.84C80.205 8.7333 80.4317 7.7533 80.885 6.9C81.3517 6.0467 81.978 5.3867 82.765 4.92C83.565 4.44 84.445 4.2 85.405 4.2C86.272 4.2 87.025 4.3733 87.665 4.72C88.318 5.0533 88.838 5.4733 89.225 5.98V4.38H91.525V15.4H89.225V13.76C88.838 14.28 88.312 14.7133 87.645 15.06C86.978 15.4067 86.218 15.58 85.365 15.58C84.418 15.58 83.552 15.34 82.765 14.86C81.978 14.3667 81.3517 13.6867 80.885 12.82C80.4317 11.94 80.205 10.9467 80.205 9.84ZM89.225 9.88C89.225 9.12 89.065 8.46 88.745 7.9C88.438 7.34 88.032 6.9133 87.525 6.62C87.018 6.3267 86.472 6.18 85.885 6.18C85.298 6.18 84.752 6.3267 84.245 6.62C83.738 6.9 83.325 7.32 83.005 7.88C82.698 8.4267 82.545 9.08 82.545 9.84C82.545 10.6 82.698 11.2667 83.005 11.84C83.325 12.4133 83.738 12.8533 84.245 13.16C84.765 13.4533 85.312 13.6 85.885 13.6C86.472 13.6 87.018 13.4533 87.525 13.16C88.032 12.8667 88.438 12.44 88.745 11.88C89.065 11.3067 89.225 10.64 89.225 9.88Z"/>
</mask>
<path d="M4.92 15.54C3.9867 15.54 3.1467 15.38 2.4 15.06C1.6533 14.7267 1.0667 14.26 0.639999 13.66C0.213299 13.06 0 12.36 0 11.56H2.44C2.4933 12.16 2.7267 12.6533 3.14 13.04C3.5667 13.4267 4.16 13.62 4.92 13.62C5.7067 13.62 6.32 13.4333 6.76 13.06C7.2 12.6733 7.42 12.18 7.42 11.58C7.42 11.1133 7.28 10.7333 7 10.44C6.7333 10.1467 6.3933 9.92 5.98 9.76C5.58 9.6 5.02 9.4267 4.3 9.24C3.3933 9 2.6533 8.76 2.08 8.52C1.52 8.2667 1.04 7.88 0.639999 7.36C0.239999 6.84 0.0400009 6.1467 0.0400009 5.28C0.0400009 4.48 0.239999 3.78 0.639999 3.18C1.04 2.58 1.6 2.12 2.32 1.8C3.04 1.48 3.8733 1.32 4.82 1.32C6.1667 1.32 7.2667 1.66 8.12 2.34C8.9867 3.0067 9.4667 3.9267 9.56 5.1H7.04C7 4.5933 6.76 4.16 6.32 3.8C5.88 3.44 5.3 3.26 4.58 3.26C3.9267 3.26 3.3933 3.4267 2.98 3.76C2.5667 4.0933 2.36 4.5733 2.36 5.2C2.36 5.6267 2.4867 5.98 2.74 6.26C3.0067 6.5267 3.34 6.74 3.74 6.9C4.14 7.06 4.6867 7.2333 5.38 7.42C6.3 7.6733 7.0467 7.9267 7.62 8.18C8.2067 8.4333 8.7 8.8267 9.1 9.36C9.5133 9.88 9.72 10.58 9.72 11.46C9.72 12.1667 9.5267 12.8333 9.14 13.46C8.7667 14.0867 8.2133 14.5933 7.48 14.98C6.76 15.3533 5.9067 15.54 4.92 15.54ZM18.1103 4.2C18.9503 4.2 19.697 4.38 20.3503 4.74C21.017 5.1 21.537 5.6333 21.9103 6.34C22.297 7.0467 22.4903 7.9 22.4903 8.9V15.4H20.2303V9.24C20.2303 8.2533 19.9836 7.5 19.4903 6.98C18.997 6.4467 18.3236 6.18 17.4703 6.18C16.617 6.18 15.937 6.4467 15.4303 6.98C14.937 7.5 14.6903 8.2533 14.6903 9.24V15.4H12.4103V0.6H14.6903V5.66C15.077 5.1933 15.5636 4.8333 16.1503 4.58C16.7503 4.3267 17.4036 4.2 18.1103 4.2ZM24.6386 9.84C24.6386 8.7333 24.8653 7.7533 25.3186 6.9C25.7853 6.0467 26.4119 5.3867 27.1986 4.92C27.9986 4.44 28.8786 4.2 29.8386 4.2C30.7053 4.2 31.4586 4.3733 32.0986 4.72C32.7519 5.0533 33.2719 5.4733 33.6586 5.98V4.38H35.9586V15.4H33.6586V13.76C33.2719 14.28 32.7453 14.7133 32.0786 15.06C31.4119 15.4067 30.6519 15.58 29.7986 15.58C28.8519 15.58 27.9853 15.34 27.1986 14.86C26.4119 14.3667 25.7853 13.6867 25.3186 12.82C24.8653 11.94 24.6386 10.9467 24.6386 9.84ZM33.6586 9.88C33.6586 9.12 33.4986 8.46 33.1786 7.9C32.8719 7.34 32.4653 6.9133 31.9586 6.62C31.4519 6.3267 30.9053 6.18 30.3186 6.18C29.7319 6.18 29.1853 6.3267 28.6786 6.62C28.1719 6.9 27.7586 7.32 27.4386 7.88C27.1319 8.4267 26.9786 9.08 26.9786 9.84C26.9786 10.6 27.1319 11.2667 27.4386 11.84C27.7586 12.4133 28.1719 12.8533 28.6786 13.16C29.1986 13.4533 29.7453 13.6 30.3186 13.6C30.9053 13.6 31.4519 13.4533 31.9586 13.16C32.4653 12.8667 32.8719 12.44 33.1786 11.88C33.4986 11.3067 33.6586 10.64 33.6586 9.88ZM41.2333 5.98C41.5666 5.42 42.0066 4.9867 42.5533 4.68C43.1133 4.36 43.7733 4.2 44.5333 4.2V6.56H43.9533C43.0599 6.56 42.3799 6.7867 41.9133 7.24C41.4599 7.6933 41.2333 8.48 41.2333 9.6V15.4H38.9533V4.38H41.2333V5.98ZM56.7291 9.62C56.7291 10.0333 56.7024 10.4067 56.6491 10.74H48.2291C48.2957 11.62 48.6224 12.3267 49.2091 12.86C49.7957 13.3933 50.5157 13.66 51.3691 13.66C52.5957 13.66 53.4624 13.1467 53.9691 12.12H56.4291C56.0957 13.1333 55.4891 13.9667 54.6091 14.62C53.7424 15.26 52.6624 15.58 51.3691 15.58C50.3157 15.58 49.3691 15.3467 48.5291 14.88C47.7024 14.4 47.0491 13.7333 46.5691 12.88C46.1024 12.0133 45.8691 11.0133 45.8691 9.88C45.8691 8.7467 46.0957 7.7533 46.5491 6.9C47.0157 6.0333 47.6624 5.3667 48.4891 4.9C49.3291 4.4333 50.2891 4.2 51.3691 4.2C52.4091 4.2 53.3357 4.4267 54.1491 4.88C54.9624 5.3333 55.5957 5.9733 56.0491 6.8C56.5024 7.6133 56.7291 8.5533 56.7291 9.62ZM54.3491 8.9C54.3357 8.06 54.0357 7.3867 53.4491 6.88C52.8624 6.3733 52.1357 6.12 51.2691 6.12C50.4824 6.12 49.8091 6.3733 49.2491 6.88C48.6891 7.3733 48.3557 8.0467 48.2491 8.9H54.3491ZM68.4281 13.36L71.5481 4.38H73.9681L69.7681 15.4H67.0481L62.8681 4.38H65.3081L68.4281 13.36ZM76.8516 2.92C76.4382 2.92 76.0916 2.78 75.8116 2.5C75.5316 2.22 75.3916 1.8733 75.3916 1.46C75.3916 1.0467 75.5316 0.7 75.8116 0.42C76.0916 0.14 76.4382 0 76.8516 0C77.2516 0 77.5916 0.14 77.8716 0.42C78.1516 0.7 78.2916 1.0467 78.2916 1.46C78.2916 1.8733 78.1516 2.22 77.8716 2.5C77.5916 2.78 77.2516 2.92 76.8516 2.92ZM77.9716 4.38V15.4H75.6916V4.38H77.9716ZM80.205 9.84C80.205 8.7333 80.4317 7.7533 80.885 6.9C81.3517 6.0467 81.978 5.3867 82.765 4.92C83.565 4.44 84.445 4.2 85.405 4.2C86.272 4.2 87.025 4.3733 87.665 4.72C88.318 5.0533 88.838 5.4733 89.225 5.98V4.38H91.525V15.4H89.225V13.76C88.838 14.28 88.312 14.7133 87.645 15.06C86.978 15.4067 86.218 15.58 85.365 15.58C84.418 15.58 83.552 15.34 82.765 14.86C81.978 14.3667 81.3517 13.6867 80.885 12.82C80.4317 11.94 80.205 10.9467 80.205 9.84ZM89.225 9.88C89.225 9.12 89.065 8.46 88.745 7.9C88.438 7.34 88.032 6.9133 87.525 6.62C87.018 6.3267 86.472 6.18 85.885 6.18C85.298 6.18 84.752 6.3267 84.245 6.62C83.738 6.9 83.325 7.32 83.005 7.88C82.698 8.4267 82.545 9.08 82.545 9.84C82.545 10.6 82.698 11.2667 83.005 11.84C83.325 12.4133 83.738 12.8533 84.245 13.16C84.765 13.4533 85.312 13.6 85.885 13.6C86.472 13.6 87.018 13.4533 87.525 13.16C88.032 12.8667 88.438 12.44 88.745 11.88C89.065 11.3067 89.225 10.64 89.225 9.88Z" fill="black" stroke="black" stroke-width="2" mask="url(#path-1-inside-1_203_28)"/>
</svg>
