<svg width="60" height="15" viewBox="0 0 60 15" fill="none" xmlns="http://www.w3.org/2000/svg">
<path d="M9.108 1.45399V2.786H5.688V14H4.05V2.786H0.612V1.45399H9.108ZM24.2643 4.136L21.1863 14H19.4943L17.1183 6.17L14.7423 14H13.0503L9.9543 4.136H11.6283L13.8963 12.416L16.3443 4.136H18.0183L20.4123 12.434L22.6443 4.136H24.2643ZM26.7359 2.534C26.4239 2.534 26.1599 2.42601 25.9439 2.21001C25.7279 1.99401 25.6199 1.73 25.6199 1.418C25.6199 1.106 25.7279 0.842007 25.9439 0.626007C26.1599 0.410007 26.4239 0.302002 26.7359 0.302002C27.0359 0.302002 27.2879 0.410007 27.4919 0.626007C27.7079 0.842007 27.8159 1.106 27.8159 1.418C27.8159 1.73 27.7079 1.99401 27.4919 2.21001C27.2879 2.42601 27.0359 2.534 26.7359 2.534ZM27.5279 4.136V14H25.8899V4.136H27.5279ZM32.3176 5.48599V11.3C32.3176 11.78 32.4196 12.122 32.6236 12.326C32.8276 12.518 33.1816 12.614 33.6856 12.614H34.8916V14H33.4156C32.5036 14 31.8196 13.79 31.3636 13.37C30.9076 12.95 30.6796 12.26 30.6796 11.3V5.48599H29.4016V4.136H30.6796V1.65199H32.3176V4.136H34.8916V5.48599H32.3176ZM38.8742 5.48599V11.3C38.8742 11.78 38.9762 12.122 39.1802 12.326C39.3842 12.518 39.7382 12.614 40.2422 12.614H41.4482V14H39.9722C39.0602 14 38.3762 13.79 37.9202 13.37C37.4642 12.95 37.2362 12.26 37.2362 11.3V5.48599H35.9582V4.136H37.2362V1.65199H38.8742V4.136H41.4482V5.48599H38.8742ZM52.433 8.69C52.433 9.002 52.415 9.33199 52.379 9.67999H44.495C44.555 10.652 44.885 11.414 45.485 11.966C46.097 12.506 46.835 12.776 47.699 12.776C48.407 12.776 48.995 12.614 49.463 12.29C49.943 11.954 50.279 11.51 50.471 10.958H52.235C51.971 11.906 51.443 12.68 50.651 13.28C49.859 13.868 48.875 14.162 47.699 14.162C46.763 14.162 45.923 13.952 45.179 13.532C44.447 13.112 43.871 12.518 43.451 11.75C43.031 10.97 42.8209 10.07 42.8209 9.05C42.8209 8.03 43.025 7.136 43.433 6.368C43.841 5.6 44.411 5.012 45.143 4.604C45.887 4.184 46.739 3.974 47.699 3.974C48.635 3.974 49.463 4.178 50.183 4.586C50.903 4.994 51.455 5.558 51.839 6.278C52.235 6.986 52.433 7.79 52.433 8.69ZM50.741 8.34801C50.741 7.72401 50.603 7.19 50.327 6.746C50.051 6.29 49.673 5.948 49.193 5.72C48.725 5.48 48.203 5.36 47.627 5.36C46.799 5.36 46.091 5.62399 45.503 6.15199C44.927 6.67999 44.597 7.41201 44.513 8.34801H50.741ZM56.233 5.73801C56.521 5.17401 56.929 4.736 57.457 4.424C57.997 4.112 58.651 3.95599 59.419 3.95599V5.64799H58.987C57.151 5.64799 56.233 6.644 56.233 8.636V14H54.595V4.136H56.233V5.73801Z" fill="black"/>
</svg>
