<svg width="24" height="24" viewBox="0 0 24 24" fill="none" xmlns="http://www.w3.org/2000/svg">
<path d="M12 21.6C14.5461 21.6 16.9879 20.589 18.7882 18.788C20.5886 16.988 21.6 14.546 21.6 12C21.6 9.454 20.5886 7.01201 18.7882 5.21201C16.9879 3.41101 14.5461 2.39999 12 2.39999C9.4539 2.39999 7.0121 3.41101 5.2118 5.21201C3.4114 7.01201 2.4 9.454 2.4 12C2.4 14.546 3.4114 16.988 5.2118 18.788C7.0121 20.589 9.4539 21.6 12 21.6ZM12 24C5.3724 24 0 18.628 0 12C0 5.372 5.3724 0 12 0C18.6276 0 24 5.372 24 12C24 18.628 18.6276 24 12 24Z" fill="black"/>
<path d="M18 8.33599C17.5584 8.52799 17.0844 8.66 16.5864 8.718C17.0952 8.418 17.484 7.943 17.6688 7.378C17.184 7.66 16.6549 7.859 16.104 7.966C15.8723 7.723 15.5935 7.52899 15.2846 7.39799C14.9758 7.26599 14.6433 7.19899 14.3076 7.19999C12.948 7.19999 11.8464 8.28599 11.8464 9.62399C11.8464 9.81399 11.868 9.99799 11.91 10.176C10.9348 10.13 9.9799 9.881 9.1064 9.445C8.2328 9.009 7.4597 8.39499 6.8364 7.64399C6.6175 8.01199 6.5022 8.433 6.5028 8.862C6.5028 9.702 6.9384 10.446 7.5984 10.879C7.2077 10.867 6.8254 10.763 6.4824 10.576V10.606C6.4861 11.169 6.685 11.714 7.0451 12.147C7.4052 12.58 7.9044 12.875 8.4576 12.982C8.0944 13.078 7.7144 13.092 7.3452 13.022C7.5062 13.507 7.814 13.93 8.226 14.231C8.638 14.533 9.1338 14.699 9.6444 14.706C8.7684 15.381 7.6928 15.746 6.5868 15.743C6.3888 15.743 6.1932 15.731 6 15.709C7.1286 16.424 8.4372 16.802 9.7728 16.8C14.3016 16.8 16.7772 13.106 16.7772 9.90199L16.7688 9.58799C17.2516 9.24899 17.6687 8.82499 18 8.33599Z" fill="black"/>
</svg>
