<svg width="24" height="24" viewBox="0 0 24 24" fill="none" xmlns="http://www.w3.org/2000/svg">
<path d="M20.4015 3.4891C19.3012 2.3786 17.9909 1.49821 16.547 0.899207C15.103 0.300207 13.5543 -0.00549392 11.991 0.000106084C5.4405 0.000106084 0.102001 5.33711 0.0960007 11.8891C0.0960007 13.9876 0.645 16.0291 1.6815 17.8366L0 24L6.306 22.347C8.0505 23.296 10.0049 23.794 11.991 23.795H11.997C18.549 23.795 23.886 18.4576 23.892 11.8996C23.8935 10.3366 23.5857 8.7889 22.9864 7.3454C22.3871 5.9019 21.5081 4.5913 20.4 3.4891H20.4015ZM11.991 21.782C10.2195 21.782 8.4806 21.305 6.957 20.402L6.597 20.186L2.856 21.167L3.855 17.5171L3.621 17.1406C2.6307 15.5661 2.107 13.7431 2.1105 11.8831C2.1105 6.44411 6.546 2.00711 11.997 2.00711C13.2956 2.00471 14.5818 2.25951 15.7815 2.75661C16.9812 3.25371 18.0706 3.98341 18.987 4.90361C19.9065 5.82011 20.6355 6.9097 21.1319 8.1094C21.6282 9.3091 21.8822 10.5952 21.879 11.8936C21.873 17.3521 17.4375 21.782 11.991 21.782ZM17.4135 14.3806C17.118 14.2321 15.6585 13.5136 15.384 13.4116C15.111 13.3141 14.9115 13.2631 14.7165 13.5601C14.517 13.8556 13.947 14.5291 13.776 14.7226C13.605 14.9221 13.428 14.9446 13.131 14.7976C12.8355 14.6476 11.877 14.3356 10.743 13.3201C9.858 12.5326 9.2655 11.5576 9.0885 11.2621C8.9175 10.9651 9.072 10.8061 9.2205 10.6576C9.351 10.5256 9.516 10.3096 9.6645 10.1386C9.8145 9.96761 9.864 9.84161 9.9615 9.64361C10.059 9.44261 10.0125 9.27161 9.939 9.12311C9.864 8.97461 9.2715 7.50911 9.021 6.91811C8.781 6.33461 8.5365 6.4156 8.3535 6.4081C8.1825 6.3976 7.983 6.3976 7.7835 6.3976C7.6328 6.4013 7.4846 6.43621 7.348 6.49991C7.2115 6.56371 7.0896 6.655 6.99 6.7681C6.717 7.0651 5.9535 7.78361 5.9535 9.24911C5.9535 10.7146 7.0185 12.1231 7.1685 12.3226C7.3155 12.5221 9.2595 15.5206 12.243 16.8106C12.948 17.1181 13.503 17.2996 13.9365 17.4376C14.649 17.6656 15.2925 17.6311 15.8055 17.5576C16.3755 17.4706 17.562 16.8376 17.8125 16.1431C18.0585 15.4471 18.0585 14.8531 17.9835 14.7286C17.91 14.6026 17.7105 14.5291 17.4135 14.3806Z" fill="black"/>
</svg>
