<svg width="93" height="19" viewBox="0 0 93 19" fill="none" xmlns="http://www.w3.org/2000/svg">
<path d="M17.154 1.45399L13.518 14H11.682L8.766 3.90199L5.742 14L3.924 14.018L0.414001 1.45399H2.16L4.896 12.092L7.92 1.45399H9.756L12.636 12.056L15.39 1.45399H17.154ZM23.8425 3.95599C24.5865 3.95599 25.2585 4.11799 25.8585 4.44199C26.4585 4.75399 26.9265 5.22799 27.2625 5.86399C27.6105 6.49999 27.7845 7.27399 27.7845 8.18599V14H26.1645V8.41999C26.1645 7.43599 25.9185 6.68599 25.4265 6.16999C24.9345 5.64199 24.2625 5.37799 23.4105 5.37799C22.5465 5.37799 21.8565 5.648 21.3405 6.188C20.8365 6.728 20.5845 7.51399 20.5845 8.54599V14H18.9465V0.679993H20.5845V5.53999C20.9085 5.03599 21.3525 4.646 21.9165 4.37C22.4925 4.094 23.1345 3.95599 23.8425 3.95599ZM29.8482 9.03199C29.8482 8.02399 30.0522 7.14199 30.4602 6.38599C30.8682 5.61799 31.4262 5.02399 32.1342 4.60399C32.8542 4.18399 33.6522 3.97399 34.5282 3.97399C35.3922 3.97399 36.1422 4.15999 36.7782 4.53199C37.4142 4.90399 37.8882 5.37199 38.2002 5.93599V4.13599H39.8562V14H38.2002V12.164C37.8762 12.74 37.3902 13.22 36.7422 13.604C36.1062 13.976 35.3622 14.162 34.5102 14.162C33.6342 14.162 32.8422 13.946 32.1342 13.514C31.4262 13.082 30.8682 12.476 30.4602 11.696C30.0522 10.916 29.8482 10.028 29.8482 9.03199ZM38.2002 9.05C38.2002 8.306 38.0502 7.658 37.7502 7.106C37.4502 6.554 37.0422 6.13399 36.5262 5.84599C36.0222 5.54599 35.4642 5.396 34.8522 5.396C34.2402 5.396 33.6822 5.54 33.1782 5.828C32.6742 6.116 32.2722 6.53599 31.9722 7.08799C31.6722 7.63999 31.5222 8.28799 31.5222 9.03199C31.5222 9.78799 31.6722 10.448 31.9722 11.012C32.2722 11.564 32.6742 11.99 33.1782 12.29C33.6822 12.578 34.2402 12.722 34.8522 12.722C35.4642 12.722 36.0222 12.578 36.5262 12.29C37.0422 11.99 37.4502 11.564 37.7502 11.012C38.0502 10.448 38.2002 9.794 38.2002 9.05ZM44.622 5.48599V11.3C44.622 11.78 44.724 12.122 44.928 12.326C45.132 12.518 45.486 12.614 45.99 12.614H47.196V14H45.72C44.808 14 44.124 13.79 43.668 13.37C43.212 12.95 42.9843 12.26 42.9843 11.3V5.48599H41.7063V4.13599H42.9843V1.65199H44.622V4.13599H47.196V5.48599H44.622ZM52.673 14.162C51.917 14.162 51.239 14.036 50.639 13.784C50.039 13.52 49.565 13.16 49.217 12.704C48.869 12.236 48.677 11.702 48.641 11.102H50.333C50.381 11.594 50.609 11.996 51.017 12.308C51.437 12.62 51.983 12.776 52.655 12.776C53.279 12.776 53.771 12.638 54.131 12.362C54.491 12.086 54.671 11.738 54.671 11.318C54.671 10.886 54.479 10.568 54.095 10.364C53.711 10.148 53.117 9.93799 52.313 9.73399C51.581 9.54199 50.981 9.34999 50.513 9.15799C50.057 8.95399 49.661 8.65999 49.325 8.27599C49.001 7.87999 48.839 7.36399 48.839 6.72799C48.839 6.22399 48.989 5.762 49.289 5.342C49.589 4.922 50.015 4.59199 50.567 4.35199C51.119 4.09999 51.749 3.97399 52.457 3.97399C53.549 3.97399 54.431 4.24999 55.103 4.80199C55.775 5.35399 56.135 6.10999 56.183 7.06999H54.545C54.509 6.55399 54.299 6.14 53.915 5.828C53.543 5.516 53.039 5.35999 52.403 5.35999C51.815 5.35999 51.347 5.48599 50.999 5.73799C50.651 5.98999 50.477 6.31999 50.477 6.72799C50.477 7.05199 50.579 7.32199 50.783 7.53799C50.999 7.74199 51.263 7.90999 51.575 8.04199C51.899 8.16199 52.343 8.29999 52.907 8.45599C53.615 8.64799 54.191 8.83999 54.635 9.03199C55.079 9.21199 55.457 9.48799 55.769 9.85999C56.093 10.232 56.261 10.718 56.273 11.318C56.273 11.858 56.123 12.344 55.823 12.776C55.523 13.208 55.097 13.55 54.545 13.802C54.005 14.042 53.381 14.162 52.673 14.162ZM57.973 9.03199C57.973 8.02399 58.177 7.14199 58.585 6.38599C58.993 5.61799 59.551 5.02399 60.259 4.60399C60.979 4.18399 61.777 3.97399 62.653 3.97399C63.517 3.97399 64.267 4.15999 64.903 4.53199C65.539 4.90399 66.013 5.37199 66.325 5.93599V4.13599H67.981V14H66.325V12.164C66.001 12.74 65.515 13.22 64.867 13.604C64.231 13.976 63.487 14.162 62.635 14.162C61.759 14.162 60.967 13.946 60.259 13.514C59.551 13.082 58.993 12.476 58.585 11.696C58.177 10.916 57.973 10.028 57.973 9.03199ZM66.325 9.05C66.325 8.306 66.175 7.658 65.875 7.106C65.575 6.554 65.167 6.13399 64.651 5.84599C64.147 5.54599 63.589 5.396 62.977 5.396C62.365 5.396 61.807 5.54 61.303 5.828C60.799 6.116 60.397 6.53599 60.097 7.08799C59.797 7.63999 59.647 8.28799 59.647 9.03199C59.647 9.78799 59.797 10.448 60.097 11.012C60.397 11.564 60.799 11.99 61.303 12.29C61.807 12.578 62.365 12.722 62.977 12.722C63.589 12.722 64.147 12.578 64.651 12.29C65.167 11.99 65.575 11.564 65.875 11.012C66.175 10.448 66.325 9.794 66.325 9.05ZM72.387 5.95399C72.711 5.38999 73.191 4.922 73.827 4.55C74.475 4.166 75.225 3.97399 76.077 3.97399C76.953 3.97399 77.745 4.18399 78.453 4.60399C79.173 5.02399 79.737 5.61799 80.145 6.38599C80.553 7.14199 80.757 8.02399 80.757 9.03199C80.757 10.028 80.553 10.916 80.145 11.696C79.737 12.476 79.173 13.082 78.453 13.514C77.745 13.946 76.953 14.162 76.077 14.162C75.237 14.162 74.493 13.976 73.845 13.604C73.209 13.22 72.723 12.746 72.387 12.182V18.68H70.749V4.13599H72.387V5.95399ZM79.083 9.03199C79.083 8.28799 78.933 7.63999 78.633 7.08799C78.333 6.53599 77.925 6.116 77.409 5.828C76.905 5.54 76.347 5.396 75.735 5.396C75.135 5.396 74.577 5.54599 74.061 5.84599C73.557 6.13399 73.149 6.55999 72.837 7.12399C72.537 7.67599 72.387 8.318 72.387 9.05C72.387 9.794 72.537 10.448 72.837 11.012C73.149 11.564 73.557 11.99 74.061 12.29C74.577 12.578 75.135 12.722 75.735 12.722C76.347 12.722 76.905 12.578 77.409 12.29C77.925 11.99 78.333 11.564 78.633 11.012C78.933 10.448 79.083 9.78799 79.083 9.03199ZM84.551 5.95399C84.875 5.38999 85.355 4.922 85.991 4.55C86.639 4.166 87.389 3.97399 88.241 3.97399C89.117 3.97399 89.909 4.18399 90.617 4.60399C91.337 5.02399 91.901 5.61799 92.309 6.38599C92.717 7.14199 92.921 8.02399 92.921 9.03199C92.921 10.028 92.717 10.916 92.309 11.696C91.901 12.476 91.337 13.082 90.617 13.514C89.909 13.946 89.117 14.162 88.241 14.162C87.401 14.162 86.657 13.976 86.009 13.604C85.373 13.22 84.887 12.746 84.551 12.182V18.68H82.913V4.13599H84.551V5.95399ZM91.247 9.03199C91.247 8.28799 91.097 7.63999 90.797 7.08799C90.497 6.53599 90.089 6.116 89.573 5.828C89.069 5.54 88.511 5.396 87.899 5.396C87.299 5.396 86.741 5.54599 86.225 5.84599C85.721 6.13399 85.313 6.55999 85.001 7.12399C84.701 7.67599 84.551 8.318 84.551 9.05C84.551 9.794 84.701 10.448 85.001 11.012C85.313 11.564 85.721 11.99 86.225 12.29C86.741 12.578 87.299 12.722 87.899 12.722C88.511 12.722 89.069 12.578 89.573 12.29C90.089 11.99 90.497 11.564 90.797 11.012C91.097 10.448 91.247 9.78799 91.247 9.03199Z" fill="black"/>
</svg>
